<?xml version="1.0" encoding="UTF-8" standalone="no"?>
<!DOCTYPE svg PUBLIC "-//W3C//DTD SVG 1.1//EN" "http://www.w3.org/Graphics/SVG/1.1/DTD/svg11.dtd">
<!-- Created with Vectornator (http://vectornator.io/) -->
<svg height="100%" stroke-miterlimit="10" style="fill-rule:nonzero;clip-rule:evenodd;stroke-linecap:round;stroke-linejoin:round;" version="1.1" viewBox="0 0 347.213 347.21" width="100%" xml:space="preserve" xmlns="http://www.w3.org/2000/svg" xmlns:vectornator="http://vectornator.io" xmlns:xlink="http://www.w3.org/1999/xlink">
<defs>
<filter color-interpolation-filters="sRGB" filterUnits="userSpaceOnUse" height="209.984" id="Filter" width="177.82" x="75.5957" y="75.5211">
<feDropShadow dx="-3.67321e-05" dy="10" flood-color="#000000" flood-opacity="0.333" in="SourceGraphic" result="Shadow" stdDeviation="5"/>
</filter>
</defs>
<path d="M0 0L347.213 0L347.213 347.21L0 347.21L0 0Z" fill="#000000" fill-opacity="0" fill-rule="nonzero" opacity="1" stroke="none" vectornator:artboardBackground="true"/>
<g id="Layer-1" vectornator:layerName="Layer 1">
<path d="M173.607 347.21L50.8482 296.362L0 173.605L50.8482 50.8477L173.607 0L296.365 50.8477L347.213 173.605L296.365 296.362L173.607 347.21Z" fill="#6391cd" fill-rule="nonzero" opacity="1" stroke="none" vectornator:layerName="Polygon 1"/>
</g>
<g id="Layer-2" vectornator:layerName="Layer 2">
<path d="M220.396 92.0948C230.116 99.6548 234.976 108.115 234.976 117.475C234.976 124.315 232.996 129.805 229.036 133.945C225.076 138.085 219.586 140.155 212.566 140.155C209.146 140.155 205.006 139.345 200.146 137.725C199.426 137.545 196.096 136.285 190.156 133.945C184.216 131.605 178.906 130.435 174.226 130.435C165.766 130.435 158.791 132.325 153.301 136.105C147.811 139.885 143.761 144.97 141.151 151.36C138.541 157.75 137.236 164.635 137.236 172.015C137.236 177.595 138.541 183.355 141.151 189.295C143.761 195.235 147.721 200.05 153.031 203.74C158.341 207.43 164.146 209.365 170.446 209.545C180.166 209.905 189.391 207.16 198.121 201.31C206.851 195.46 212.611 192.175 215.401 191.455C218.191 190.735 220.576 190.375 222.556 190.375L227.956 190.645C231.556 191.365 234.616 193.12 237.136 195.91C239.656 198.7 240.916 202.345 240.916 206.845C240.916 210.265 240.556 213.415 239.836 216.295C238.576 221.695 236.146 227.14 232.546 232.63C228.946 238.12 223.951 243.115 217.561 247.615C211.171 252.115 203.791 255.805 195.421 258.685C187.051 261.565 178.546 263.005 169.906 263.005C157.846 263.005 146.686 260.485 136.426 255.445C126.166 250.405 117.481 243.52 110.371 234.79C103.261 226.06 97.7708 216.205 93.9008 205.225C90.0308 194.245 88.0958 183.085 88.0958 171.745C88.0958 165.805 88.7258 159.01 89.9858 151.36C91.2458 143.71 93.6308 135.925 97.1408 128.005C100.651 120.085 105.106 112.93 110.506 106.54C115.906 100.15 122.251 94.7048 129.541 90.2048C136.831 85.7048 144.211 82.5998 151.681 80.8898C159.151 79.1798 165.946 78.2348 172.066 78.0548C177.826 77.8748 183.991 78.4148 190.561 79.6748C197.131 80.9348 202.981 82.7348 208.111 85.0748C213.241 87.4148 217.336 89.7548 220.396 92.0948Z" fill="#ffffff" filter="url(#Filter)" stroke="none" vectornator:layerName="Text 1" vectornator:shadowAngle="1.5708" vectornator:shadowColor="#000000" vectornator:shadowOffset="10" vectornator:shadowOpacity="0.333" vectornator:shadowRadius="10"/>
</g>
</svg>
